<?xml version="1.0" encoding="UTF-8"?>
<svg width="16" height="16" version="1.1" viewBox="0 0 16 16" xmlns="http://www.w3.org/2000/svg">
 <path d="m6.5 1c-.83203 0-1.5.66797-1.5 1.5v1.5h-3c-.55469 0-1 .44531-1 1v3h1.5c.83203 0 1.5.66797 1.5 1.5s-.66797 1.5-1.5 1.5h-1.5v3c0 .55469.44531 1 1 1h3v-1.5c0-.83203.66797-1.5 1.5-1.5s1.5.66797 1.5 1.5v1.5h3c.55469 0 1-.44531 1-1v-3h1.5c.83203 0 1.5-.66797 1.5-1.5s-.66797-1.5-1.5-1.5h-1.5v-3c0-.55469-.44531-1-1-1h-3v-1.5c0-.83203-.66797-1.5-1.5-1.5z" fill="#2e3440"/>
</svg>
