<svg width="16" height="16" version="1.1" viewBox="0 0 16 16" xmlns="http://www.w3.org/2000/svg">
 <path d="m4.5 5c-1.619 0-3 1.381-3 3s1.381 3 3 3c1.39 0 2.196-.923 2.91-1.92.714.997 1.52 1.92 2.91 1.92 1.619 0 3-1.381 3-3s-1.381-3-3-3c-1.39 0-2.196.923-2.91 1.92-.714-.997-1.52-1.92-2.91-1.92zm0 1c.913 0 1.49.656 2.17 1.647-.68.99-1.257 1.353-2.17 1.353-1.079 0-2-.921-2-2s.921-2 2-2zm5.82 0c1.079 0 2 .921 2 2s-.921 2-2 2c-.913 0-1.49-.363-2.17-1.353.68-.991 1.257-1.647 2.17-1.647z" fill="currentColor"/>
</svg>
