<svg width="64" height="64" version="1.1" viewBox="0 0 16.933 16.933" xmlns="http://www.w3.org/2000/svg">
 <defs>
  <filter id="tile-shadow" x="-.047999" y="-.047999" width="1.096" height="1.096" color-interpolation-filters="sRGB">
   <feGaussianBlur stdDeviation="0.30691668"/>
  </filter>
  <linearGradient id="tile" x1=".92604" x2="16.007" y1=".92604" y2="16.007" gradientUnits="userSpaceOnUse">
   <stop stop-color="#8fbcbb" offset="0"/>
   <stop stop-color="#88c0d0" offset=".58"/>
   <stop stop-color="#5e81ac" offset="1"/>
  </linearGradient>
  <linearGradient id="panel" x1="5.05" x2="11.92" y1="6.28" y2="11.66" gradientUnits="userSpaceOnUse">
   <stop stop-color="#f8fbfd" offset="0"/>
   <stop stop-color="#dfe5ed" offset="1"/>
  </linearGradient>
  <linearGradient id="panel-line" x1="5.45" x2="10.52" y1="8.03" y2="8.03" gradientUnits="userSpaceOnUse">
   <stop stop-color="#c9c9c9" offset="0"/>
   <stop stop-color="#b0b0b0" offset="1"/>
  </linearGradient>
 </defs>
 <g stroke-linecap="round" stroke-linejoin="round">
  <rect transform="matrix(.99138 0 0 1 .072989 .0019055)" x=".79375" y=".90545" width="15.346" height="15.346" rx="3.0526" ry="3.0526" fill="#000" filter="url(#tile-shadow)" opacity=".15" stroke-width="1.2489" style="mix-blend-mode:normal"/>
  <rect x=".92604" y=".92604" width="15.081" height="15.081" rx="3" ry="3" fill="url(#tile)" stroke-width="1.2274"/>
  <path d="m.92604 12.774v.27235c0 1.658 1.342 3 3 3h9.081c1.658 0 3-1.342 3-3v-.27235c0 1.658-1.342 3-3 3h-9.081c-1.658 0-3-1.342-3-3" opacity=".16"/>
  <path d="m.92604 4.159v-.23396c0-1.658 1.342-3 3-3h9.081c1.658 0 3 1.342 3 3v.23396c0-1.658-1.342-3-3-3h-9.081c-1.658 0-3 1.342-3 3" fill="#fff" opacity=".12"/>
  <rect x=".01215" y=".0060174" width="16.924" height="16.927" fill="none" opacity=".15" stroke-width="1.052"/>
 </g>
 <g fill="none" stroke="#eceff4" stroke-linecap="round" stroke-linejoin="round" stroke-width=".42">
  <path d="m2.86 4.58v-1.01c0-.307.248-.555.555-.555h1.01"/>
  <path d="m14.073 4.58v-1.01c0-.307-.248-.555-.555-.555h-1.01"/>
  <path d="m2.86 12.353v1.01c0 .307.248.555.555.555h1.01"/>
  <path d="m14.073 12.353v1.01c0 .307-.248.555-.555.555h-1.01"/>
 </g>
 <circle cx="10.96" cy="5.58" r="1.03" fill="#dadada"/>
 <path d="m10.68 5.3 0.56 0.56" fill="none" stroke="#2e3440" stroke-linecap="round" stroke-width=".23"/>
 <path d="m11.24 5.3-0.56 0.56" fill="none" stroke="#2e3440" stroke-linecap="round" stroke-width=".23"/>
 <rect x="4.52" y="6.37" width="7.9" height="4.52" rx="1.12" ry="1.12" fill="url(#panel)"/>
 <rect x="5.35" y="7.3" width="3.2" height=".6" rx=".3" ry=".3" fill="url(#panel-line)"/>
 <rect x="5.35" y="8.57" width="4.43" height=".48" rx=".24" ry=".24" fill="#bdbdbd"/>
 <rect x="5.35" y="9.48" width="3.84" height=".48" rx=".24" ry=".24" fill="#bdbdbd"/>
 <rect x="9.98" y="8.43" width="1.11" height=".74" rx=".37" ry=".37" fill="#8e8e8e"/>
 <rect x="10.02" y="9.44" width="1.86" height=".88" rx=".44" ry=".44" fill="#4a86f3"/>
 <circle cx="11.34" cy="9.88" r=".33" fill="#eceff4"/>
</svg>
