<svg width="64" height="64" version="1.1" viewBox="0 0 16.933 16.933" xmlns="http://www.w3.org/2000/svg">
 <defs>
  <filter id="shadow" x="-.06" y="-.06" width="1.12" height="1.12" color-interpolation-filters="sRGB">
   <feGaussianBlur stdDeviation="0.31"/>
  </filter>
  <linearGradient id="tile" x1="2.2" x2="14.8" y1="1.6" y2="15.4" gradientUnits="userSpaceOnUse">
   <stop stop-color="#88c0d0" offset="0"/>
   <stop stop-color="#6f98c8" offset=".48"/>
   <stop stop-color="#5e81ac" offset="1"/>
  </linearGradient>
  <linearGradient id="tileShade" x1="4.1" x2="12.9" y1="3.1" y2="13.9" gradientUnits="userSpaceOnUse">
   <stop stop-color="#81a1c1" stop-opacity=".0" offset="0"/>
   <stop stop-color="#3b4252" stop-opacity=".22" offset="1"/>
  </linearGradient>
  <linearGradient id="glass" x1="4.7" x2="11.9" y1="3.6" y2="13.5" gradientUnits="userSpaceOnUse">
   <stop stop-color="#f7fafc" offset="0"/>
   <stop stop-color="#e5e9f0" offset=".58"/>
   <stop stop-color="#cfd6e2" offset="1"/>
  </linearGradient>
  <linearGradient id="glassEdge" x1="4.1" x2="12.2" y1="3.2" y2="13.4" gradientUnits="userSpaceOnUse">
   <stop stop-color="#ffffff" offset="0"/>
   <stop stop-color="#d8dee9" offset="1"/>
  </linearGradient>
  <linearGradient id="cap" x1="5.5" x2="10.7" y1="3.4" y2="6.4" gradientUnits="userSpaceOnUse">
   <stop stop-color="#4c566a" offset="0"/>
   <stop stop-color="#2e3440" offset="1"/>
  </linearGradient>
  <linearGradient id="yellow" x1="4.6" x2="6.5" y1="7.4" y2="11.8" gradientUnits="userSpaceOnUse">
   <stop stop-color="#ebcb8b" offset="0"/>
   <stop stop-color="#d08770" offset="1"/>
  </linearGradient>
  <linearGradient id="green" x1="7.35" x2="9.45" y1="6.6" y2="12.7" gradientUnits="userSpaceOnUse">
   <stop stop-color="#a3be8c" offset="0"/>
   <stop stop-color="#7aa05d" offset="1"/>
  </linearGradient>
  <linearGradient id="red" x1="10.1" x2="12.25" y1="7.2" y2="12.2" gradientUnits="userSpaceOnUse">
   <stop stop-color="#bf616a" offset="0"/>
   <stop stop-color="#a84754" offset="1"/>
  </linearGradient>
 </defs>
 <rect x="1.28" y="1.22" width="14.36" height="14.36" rx="3.22" ry="3.22" fill="#000" filter="url(#shadow)" opacity=".16"/>
 <rect x="1.18" y="1.06" width="14.57" height="14.57" rx="3.12" ry="3.12" fill="url(#tile)"/>
 <rect x="1.18" y="1.06" width="14.57" height="14.57" rx="3.12" ry="3.12" fill="url(#tileShade)"/>
 <path d="m1.18 1.31v-.05c0-1.602 1.298-2.9 2.9-2.9h8.77c1.602 0 2.9 1.298 2.9 2.9v.05c0-1.602-1.298-2.9-2.9-2.9h-8.77c-1.602 0-2.9 1.298-2.9 2.9" fill="#fff" opacity=".16"/>
 <path d="m1.18 13.32v.22c0 1.602 1.298 2.9 2.9 2.9h8.77c1.602 0 2.9-1.298 2.9-2.9v-.22c0 1.602-1.298 2.9-2.9 2.9h-8.77c-1.602 0-2.9-1.298-2.9-2.9" opacity=".12"/>
 <path d="m4.55 3.18c-.11 0-.2.089-.2.2v.84c0 .255-.103.5-.284.679l-.249.246c-.241.238-.376.562-.376.901v5.146c0 .946.767 1.713 1.713 1.713h1.114c.946 0 1.713-.767 1.713-1.713v-5.146c0-.339-.135-.663-.376-.901l-.249-.246c-.181-.179-.284-.424-.284-.679v-.84c0-.111-.089-.2-.2-.2z" fill="#000" opacity=".16"/>
 <path d="m9.54 2.46c-.123 0-.223.1-.223.223v1.04c0 .287-.112.563-.313.767l-.309.315c-.251.255-.392.598-.392.956v5.576c0 1.025.83 1.856 1.856 1.856h1.208c1.025 0 1.856-.831 1.856-1.856v-5.576c0-.358-.141-.701-.392-.956l-.309-.315c-.201-.204-.313-.48-.313-.767v-1.04c0-.123-.1-.223-.223-.223z" fill="#000" opacity=".18"/>
 <path d="m7.11 4.57c-.098 0-.177.079-.177.177v.723c0 .23-.09.45-.25.613l-.22.225c-.232.237-.363.555-.363.887v4.729c0 .891.722 1.613 1.613 1.613h1.048c.891 0 1.613-.722 1.613-1.613v-4.729c0-.332-.131-.65-.363-.887l-.22-.225c-.16-.163-.25-.383-.25-.613v-.723c0-.098-.079-.177-.177-.177z" fill="#000" opacity=".13"/>
 <path d="m4.78 2.97h1.518v1.02c0 .344.138.673.384.914l.24.235c.214.21.334.497.334.797v5.264c0 .772-.626 1.398-1.398 1.398h-0.914c-.772 0-1.398-.626-1.398-1.398v-5.264c0-.3.12-.587.334-.797l.24-.235c.246-.241.384-.57.384-.914z" fill="url(#glass)"/>
 <path d="m7.32 4.35h1.844v.851c0 .287.112.563.313.767l.197.201c.173.176.27.413.27.659v5.092c0 .681-.552 1.233-1.233 1.233h-.937c-.681 0-1.233-.552-1.233-1.233v-5.092c0-.246.097-.483.27-.659l.197-.201c.201-.204.313-.48.313-.767z" fill="url(#glass)"/>
 <path d="m9.77 2.27h1.651v1.262c0 .38.149.744.415 1.014l.301.306c.215.218.336.512.336.818v5.667c0 .818-.663 1.481-1.481 1.481h-0.907c-.818 0-1.481-.663-1.481-1.481v-5.667c0-.306.121-.6.336-.818l.301-.306c.266-.27.415-.634.415-1.014z" fill="url(#glass)"/>
 <path d="m4.78 2.97h1.518v.358h-1.518z" fill="url(#cap)"/>
 <path d="m7.32 4.35h1.844v.322h-1.844z" fill="url(#cap)"/>
 <path d="m9.77 2.27h1.651v.404h-1.651z" fill="url(#cap)"/>
 <path d="m3.88 8.2h3.04v3.18c0 .672-.544 1.216-1.216 1.216h-.608c-.672 0-1.216-.544-1.216-1.216z" fill="url(#yellow)"/>
 <path d="m6.9 7.54h2.68v4.16c0 .635-.515 1.15-1.15 1.15h-.38c-.635 0-1.15-.515-1.15-1.15z" fill="url(#green)"/>
 <path d="m9.17 8.02h3.04v3.46c0 .74-.6 1.34-1.34 1.34h-.36c-.74 0-1.34-.6-1.34-1.34z" fill="url(#red)"/>
 <path d="m4.09 8.48c.67.18 1.47.18 2.4 0" fill="none" opacity=".22" stroke="#fff" stroke-linecap="round" stroke-width=".2"/>
 <path d="m7.11 7.88c.57.16 1.22.16 2.27 0" fill="none" opacity=".2" stroke="#fff" stroke-linecap="round" stroke-width=".2"/>
 <path d="m9.39 8.38c.7.18 1.57.18 2.6 0" fill="none" opacity=".18" stroke="#fff" stroke-linecap="round" stroke-width=".2"/>
 <path d="m5.08 3.32v8.78" fill="none" opacity=".55" stroke="#fff" stroke-linecap="round" stroke-width=".24"/>
 <path d="m7.73 4.73v7.66" fill="none" opacity=".42" stroke="#fff" stroke-linecap="round" stroke-width=".22"/>
 <path d="m10.24 2.71v9.19" fill="none" opacity=".48" stroke="#fff" stroke-linecap="round" stroke-width=".24"/>
 <path d="m4.78 2.97h1.518v1.02c0 .344.138.673.384.914l.24.235c.214.21.334.497.334.797v5.264c0 .772-.626 1.398-1.398 1.398h-.914c-.772 0-1.398-.626-1.398-1.398v-5.264c0-.3.12-.587.334-.797l.24-.235c.246-.241.384-.57.384-.914z" fill="none" stroke="url(#glassEdge)" stroke-opacity=".62" stroke-width=".14"/>
 <path d="m7.32 4.35h1.844v.851c0 .287.112.563.313.767l.197.201c.173.176.27.413.27.659v5.092c0 .681-.552 1.233-1.233 1.233h-.937c-.681 0-1.233-.552-1.233-1.233v-5.092c0-.246.097-.483.27-.659l.197-.201c.201-.204.313-.48.313-.767z" fill="none" stroke="url(#glassEdge)" stroke-opacity=".55" stroke-width=".14"/>
 <path d="m9.77 2.27h1.651v1.262c0 .38.149.744.415 1.014l.301.306c.215.218.336.512.336.818v5.667c0 .818-.663 1.481-1.481 1.481h-.907c-.818 0-1.481-.663-1.481-1.481v-5.667c0-.306.121-.6.336-.818l.301-.306c.266-.27.415-.634.415-1.014z" fill="none" stroke="url(#glassEdge)" stroke-opacity=".58" stroke-width=".14"/>
</svg>
