<svg width="64" height="64" version="1.1" viewBox="0 0 16.933 16.933" xmlns="http://www.w3.org/2000/svg">
 <defs>
  <filter id="shadow" x="-.06" y="-.06" width="1.12" height="1.12" color-interpolation-filters="sRGB">
   <feGaussianBlur stdDeviation="0.29"/>
  </filter>
  <linearGradient id="header" x1="3.2" x2="13.7" y1="1.8" y2="5.8" gradientUnits="userSpaceOnUse">
   <stop stop-color="#bf616a" offset="0"/>
   <stop stop-color="#d08770" offset="1"/>
  </linearGradient>
  <linearGradient id="paper" x1="3.1" x2="13.9" y1="4.9" y2="14.7" gradientUnits="userSpaceOnUse">
   <stop stop-color="#fbfcfe" offset="0"/>
   <stop stop-color="#e5e9f0" offset="1"/>
  </linearGradient>
 </defs>
 <rect transform="matrix(.99138 0 0 1 .072989 .0019055)" x=".79375" y=".90545" width="15.346" height="15.346" rx="3.0526" ry="3.0526" fill="#000" filter="url(#shadow)" opacity=".16"/>
 <rect x=".92604" y=".92604" width="15.081" height="15.081" rx="3" ry="3" fill="url(#paper)"/>
 <path d="m.92604 3.926v2.8618h15.081v-2.8618c0-1.658-1.342-3-3-3h-9.081c-1.658 0-3 1.342-3 3z" fill="url(#header)"/>
 <path d="m.92604 6.7878h15.081" fill="none" opacity=".12" stroke="#2e3440" stroke-width=".22"/>
 <path d="m.92604 4.159v-.23396c0-1.658 1.342-3 3-3h9.081c1.658 0 3 1.342 3 3v.23396c0-1.658-1.342-3-3-3h-9.081c-1.658 0-3 1.342-3 3" fill="#fff" opacity=".12"/>
 <text x="8.4665" y="4.85" fill="#f7f9fc" font-family="Cantarell, sans-serif" font-size="2.55px" font-weight="700" letter-spacing=".09px" text-anchor="middle">AUG</text>
 <text x="8.4665" y="12.35" fill="#2e3440" font-family="Cantarell, sans-serif" font-size="7.2px" font-weight="700" text-anchor="middle">15</text>
</svg>
