<svg width="64" height="64" version="1.1" viewBox="0 0 16.933 16.933" xmlns="http://www.w3.org/2000/svg">
 <defs>
  <filter id="shadow" x="-.06" y="-.06" width="1.12" height="1.12" color-interpolation-filters="sRGB">
   <feGaussianBlur stdDeviation="0.29"/>
  </filter>
  <linearGradient id="header" x1="3.2" x2="13.7" y1="1.8" y2="5.8" gradientUnits="userSpaceOnUse">
   <stop stop-color="#bf616a" offset="0"/>
   <stop stop-color="#d08770" offset="1"/>
  </linearGradient>
  <linearGradient id="paper" x1="3.1" x2="13.9" y1="4.9" y2="14.7" gradientUnits="userSpaceOnUse">
   <stop stop-color="#fbfcfe" offset="0"/>
   <stop stop-color="#e5e9f0" offset="1"/>
  </linearGradient>
 </defs>
 <rect x="1.45" y="1.35" width="14.03" height="14.03" rx="2.85" ry="2.85" fill="#000" filter="url(#shadow)" opacity=".16"/>
 <path d="m3.68 1.1902h9.573c1.463 0 2.489 1.026 2.489 2.489v9.573c0 1.463-1.026 2.489-2.489 2.489h-9.573c-1.463 0-2.489-1.026-2.489-2.489v-9.573c0-1.463 1.026-2.489 2.489-2.489z" fill="url(#paper)"/>
 <path d="m3.68 1.1902h9.573c1.463 0 2.489 1.026 2.489 2.489v2.9367h-14.551v-2.9367c0-1.463 1.026-2.489 2.489-2.489z" fill="url(#header)"/>
 <path d="m1.1902 6.6169h14.551" fill="none" opacity=".12" stroke="#2e3440" stroke-width=".22"/>
 <path d="m3.68 1.1902h9.573c1.463 0 2.489 1.026 2.489 2.489v.24428c0-1.463-1.026-2.489-2.489-2.489h-9.573c-1.463 0-2.489 1.026-2.489 2.489v-.24428c0-1.463 1.026-2.489 2.489-2.489z" fill="#fff" opacity=".14"/>
 <text x="8.4665" y="4.85" fill="#f7f9fc" font-family="Cantarell, sans-serif" font-size="2.55px" font-weight="700" letter-spacing=".09px" text-anchor="middle">AUG</text>
 <text x="8.4665" y="12.35" fill="#2e3440" font-family="Cantarell, sans-serif" font-size="7.2px" font-weight="700" text-anchor="middle">15</text>
</svg>
