<svg width="64" height="64" version="1.1" viewBox="0 0 16.933 16.933" xmlns="http://www.w3.org/2000/svg">
 <defs>
  <filter id="shadow" x="-.06" y="-.06" width="1.12" height="1.12" color-interpolation-filters="sRGB">
   <feGaussianBlur stdDeviation="0.3"/>
  </filter>
  <linearGradient id="paper" x1="2.2" x2="14.7" y1="1.2" y2="15.8" gradientUnits="userSpaceOnUse">
   <stop stop-color="#fcfdff" offset="0"/>
   <stop stop-color="#e5e9f0" offset="1"/>
  </linearGradient>
  <linearGradient id="flareMain" x1="3.2" x2="13.8" y1="8.8" y2="13.6" gradientUnits="userSpaceOnUse">
   <stop stop-color="#ebcb8b" offset="0"/>
   <stop stop-color="#d08770" offset="1"/>
  </linearGradient>
 <linearGradient id="flareAccent" x1="10.8" x2="15.2" y1="8.7" y2="13.2" gradientUnits="userSpaceOnUse">
   <stop stop-color="#e5c07b" offset="0"/>
   <stop stop-color="#bf616a" offset="1"/>
  </linearGradient>
  <clipPath id="tileClip">
   <rect x=".92604" y=".92604" width="15.081" height="15.081" rx="3" ry="3"/>
  </clipPath>
 </defs>
 <rect transform="matrix(.99138 0 0 1 .072989 .0019055)" x=".79375" y=".90545" width="15.346" height="15.346" rx="3.0526" ry="3.0526" fill="#000" filter="url(#shadow)" opacity=".16"/>
 <rect x=".92604" y=".92604" width="15.081" height="15.081" rx="3" ry="3" fill="url(#paper)"/>
 <path d="m1.18 13.29v.247c0 1.602 1.298 2.9 2.9 2.9h8.77c1.602 0 2.9-1.298 2.9-2.9v-.247c0 1.602-1.298 2.9-2.9 2.9h-8.77c-1.602 0-2.9-1.298-2.9-2.9" opacity=".08"/>
 <path d="m.92604 4.159v-.23396c0-1.658 1.342-3 3-3h9.081c1.658 0 3 1.342 3 3v.23396c0-1.658-1.342-3-3-3h-9.081c-1.658 0-3 1.342-3 3" fill="#fff" opacity=".12"/>
 <g clip-path="url(#tileClip)">
  <g transform="matrix(.1158 0 0 .1158 -1.5929 2.3257)">
   <path d="M110.05859 112.21484c.98438-3.375.60938-6.47265-1.03124-8.76953-1.5-2.10938-4.03516-3.33203-7.08204-3.47266l-57.72265-.74609c-.37891 0-.70704-.1914-.89454-.47265-.1875-.28125-.23437-.65625-.14062-1.03125.1875-.5625.75-.98438 1.35937-1.03125l58.24219-.75c6.89453-.32813 14.39844-5.90625 17.02344-12.75391l3.32812-8.67578c.14063-.375.1875-.75.0938-1.125-3.75-16.97656-18.89844-29.63672-36.9961-29.63672-16.6953 0-30.85937 10.78516-35.92187 25.74219-3.28125-2.4375-7.45703-3.75-11.95703-3.32813-8.01953.79688-14.44531 7.22266-15.24219 15.24219-.1875 2.0625-.0469 4.07812.42188 5.95312C10.45703 87.73437 0 98.42578 0 111.60547c0 1.17187.09375 2.34375.23438 3.51562.09375.5625.5625.98438 1.125.98438h106.54296c.60938 0 1.17188-.42188 1.35938-1.03125z" fill="url(#flareMain)"/>
   <path d="M128.44141 75.12109c-.51563 0-1.07813 0-1.59375.04688-.375 0-.70313.28125-.84375.65625l-2.25391 7.83203c-.98437 3.375-.60937 6.47266 1.03125 8.76953 1.50391 2.10938 4.03516 3.32813 7.08203 3.46875l12.28516.75c.375 0 .70703.1875.89453.46875.1875.28125.23437.70313.14062 1.03125-.1875.5625-.7539.98438-1.36328 1.03125l-12.80078.75391c-6.9414.32812-14.39453 5.90625-17.02343 12.7539l-.9375 2.39063c-.1875.46875.14062.9375.65625.9375h43.98828c.51562 0 .98437-.32813 1.125-.84375.75-2.71875 1.17187-5.57813 1.17187-8.53516 0-17.35156-14.16015-31.51172-31.55859-31.51172z" fill="url(#flareAccent)"/>
  </g>
 </g>
</svg>
