<svg width="64" height="64" version="1.1" viewBox="0 0 16.933 16.933" xmlns="http://www.w3.org/2000/svg">
 <defs>
  <filter id="shadow" x="-.05" y="-.05" width="1.1" height="1.1" color-interpolation-filters="sRGB">
   <feGaussianBlur stdDeviation="0.28"/>
  </filter>
  <linearGradient id="leftFace" x1="2.1" x2="7.9" y1="1.3" y2="15.7" gradientUnits="userSpaceOnUse">
   <stop stop-color="#88c0d0" offset="0"/>
   <stop stop-color="#5e81ac" offset="1"/>
  </linearGradient>
  <linearGradient id="rightFace" x1="9.1" x2="14.8" y1="1.2" y2="15.7" gradientUnits="userSpaceOnUse">
   <stop stop-color="#f7f9fc" offset="0"/>
   <stop stop-color="#e5e9f0" offset="1"/>
  </linearGradient>
  <linearGradient id="divider" x1="7.82" x2="9.06" y1="1.2" y2="15.2" gradientUnits="userSpaceOnUse">
   <stop stop-color="#d9e1eb" offset="0"/>
   <stop stop-color="#c9d3de" offset="1"/>
  </linearGradient>
 </defs>
 <rect transform="matrix(.99138 0 0 1 .072989 .0019055)" x=".79375" y=".90545" width="15.346" height="15.346" rx="3.0526" ry="3.0526" fill="#000" filter="url(#shadow)" opacity=".16"/>
 <rect x=".92604" y=".92604" width="15.081" height="15.081" rx="3" ry="3" fill="url(#leftFace)"/>
 <path d="m8.4665.92604h4.5405c1.658 0 3 1.342 3 3v9.081c0 1.658-1.342 3-3 3h-4.5405z" fill="url(#rightFace)"/>
 <rect x="8.08" y=".92604" width=".78" height="15.081" fill="url(#divider)"/>
 <rect x="4.52" y="4.28" width=".68" height="2.28" rx=".34" ry=".34" fill="#2e3440"/>
 <rect x="11.73" y="4.28" width=".68" height="2.28" rx=".34" ry=".34" fill="#2e3440"/>
 <path d="m.92604 4.159v-.23396c0-1.658 1.342-3 3-3h9.081c1.658 0 3 1.342 3 3v.23396c0-1.658-1.342-3-3-3h-9.081c-1.658 0-3 1.342-3 3" fill="#fff" opacity=".12"/>
 <path d="m3.76 8.58c1.04 1.62 2.56 2.42 4.57 2.42 1.95 0 3.51-.8 4.69-2.42" fill="none" stroke="#2e3440" stroke-linecap="round" stroke-width=".54"/>
 <path d="m3.76 8.58c1.04 1.62 2.56 2.42 4.57 2.42 1.95 0 3.51-.8 4.69-2.42" fill="none" opacity=".16" stroke="#fff" stroke-linecap="round" stroke-width=".14"/>
</svg>
