<svg width="64" height="64" version="1.1" viewBox="0 0 16.933 16.933" xmlns="http://www.w3.org/2000/svg">
 <defs>
  <filter id="shadow" x="-.06" y="-.06" width="1.12" height="1.12" color-interpolation-filters="sRGB">
   <feGaussianBlur stdDeviation="0.3"/>
  </filter>
  <linearGradient id="paper" x1="2.4" x2="14.5" y1="1.5" y2="15.6" gradientUnits="userSpaceOnUse">
   <stop stop-color="#fcfdff" offset="0"/>
   <stop stop-color="#e5e9f0" offset="1"/>
  </linearGradient>
 </defs>
 <rect x="1.3" y="1.28" width="14.33" height="14.33" rx="2.95" ry="2.95" fill="#000" filter="url(#shadow)" opacity=".16"/>
 <rect x="1.18" y="1.06" width="14.57" height="14.57" rx="2.9" ry="2.9" fill="url(#paper)"/>
 <path d="m1.18 13.29v.247c0 1.602 1.298 2.9 2.9 2.9h8.77c1.602 0 2.9-1.298 2.9-2.9v-.247c0 1.602-1.298 2.9-2.9 2.9h-8.77c-1.602 0-2.9-1.298-2.9-2.9" opacity=".1"/>
 <path d="m1.18 3.41h14.57" fill="none" stroke="#4c566a" stroke-opacity=".38" stroke-width=".16"/>
 <path d="m1.18 5.18h14.57" fill="none" stroke="#4c566a" stroke-opacity=".34" stroke-width=".16"/>
 <path d="m1.18 6.95h14.57" fill="none" stroke="#4c566a" stroke-opacity=".34" stroke-width=".16"/>
 <path d="m1.18 8.72h14.57" fill="none" stroke="#4c566a" stroke-opacity=".34" stroke-width=".16"/>
 <path d="m1.18 10.49h14.57" fill="none" stroke="#4c566a" stroke-opacity=".34" stroke-width=".16"/>
 <path d="m1.18 12.26h14.57" fill="none" stroke="#4c566a" stroke-opacity=".34" stroke-width=".16"/>
 <path d="m3.66 1.3v14.09" fill="none" stroke="#d08770" stroke-opacity=".95" stroke-width=".34"/>
 <path d="m3.92 1.3v14.09" fill="none" stroke="#bf616a" stroke-opacity=".8" stroke-width=".12"/>
 <path d="m1.18 1.06v.24c0-1.602 1.298-2.9 2.9-2.9h8.77c1.602 0 2.9 1.298 2.9 2.9v-.24c0-1.602-1.298-2.9-2.9-2.9h-8.77c-1.602 0-2.9 1.298-2.9 2.9" fill="#fff" opacity=".14"/>
</svg>
