<svg width="64" height="64" version="1.1" viewBox="0 0 16.933 16.933" xmlns="http://www.w3.org/2000/svg">
 <defs>
  <filter id="shadow" x="-.06" y="-.06" width="1.12" height="1.12" color-interpolation-filters="sRGB">
   <feGaussianBlur stdDeviation="0.31"/>
  </filter>
  <linearGradient id="shell" x1="3.1" x2="13.8" y1="2.1" y2="14.9" gradientUnits="userSpaceOnUse">
   <stop stop-color="#3b4252" offset="0"/>
   <stop stop-color="#2e3440" offset=".58"/>
   <stop stop-color="#242933" offset="1"/>
  </linearGradient>
  <linearGradient id="rim" x1="2.3" x2="14.5" y1="1.7" y2="15.2" gradientUnits="userSpaceOnUse">
   <stop stop-color="#4c566a" offset="0"/>
   <stop stop-color="#434c5e" offset=".45"/>
   <stop stop-color="#3b4252" offset="1"/>
  </linearGradient>
  <linearGradient id="prompt" x1="3.6" x2="7.1" y1="5.3" y2="7.9" gradientUnits="userSpaceOnUse">
   <stop stop-color="#eceff4" offset="0"/>
   <stop stop-color="#d8dee9" offset="1"/>
  </linearGradient>
  <linearGradient id="cursor" x1="8.25" x2="10.82" y1="7.1" y2="7.85" gradientUnits="userSpaceOnUse">
   <stop stop-color="#d8dee9" offset="0"/>
   <stop stop-color="#4c566a" offset="1"/>
  </linearGradient>
 </defs>
 <rect transform="matrix(.99138 0 0 1 .072989 .0019055)" x=".79375" y=".90545" width="15.346" height="15.346" rx="3.0526" ry="3.0526" fill="#000" filter="url(#shadow)" opacity=".16"/>
 <rect x=".92604" y=".92604" width="15.081" height="15.081" rx="3" ry="3" fill="url(#rim)"/>
 <rect x="1.26" y="1.26" width="14.41" height="14.41" rx="2.68" ry="2.68" fill="url(#shell)"/>
 <path d="m1.26 13.56v.28c0 1.558 1.263 2.821 2.821 2.821h8.769c1.558 0 2.821-1.263 2.821-2.821v-.28c0 1.558-1.263 2.821-2.821 2.821h-8.769c-1.558 0-2.821-1.263-2.821-2.821" opacity=".12"/>
 <path d="m1.26 1.54v-.04c0-1.558 1.263-2.821 2.821-2.821h8.769c1.558 0 2.821 1.263 2.821 2.821v.04c0-1.558-1.263-2.821-2.821-2.821h-8.769c-1.558 0-2.821 1.263-2.821 2.821" fill="#eceff4" opacity=".18"/>
 <path d="m3.92 5.28v-.84l2.95 1.64v.57l-2.95 1.76v-.84l2.03-1.21z" fill="#000" opacity=".24"/>
 <rect x="8.11" y="7.42" width="2.85" height=".54" rx=".16" ry=".16" fill="#000" opacity=".22"/>
 <path d="m3.7 5.01v-.84l2.95 1.64v.57l-2.95 1.76v-.84l2.03-1.21z" fill="url(#prompt)"/>
 <rect x="7.89" y="7.15" width="2.85" height=".54" rx=".16" ry=".16" fill="#d8dee9"/>
</svg>
